<svg id="Tryb_izolacji" data-name="Tryb izolacji" xmlns="http://www.w3.org/2000/svg" xmlns:xlink="http://www.w3.org/1999/xlink" viewBox="0 0 780.28 734.88"><defs><style>.cls-1{fill:none;clip-rule:evenodd;}.cls-2{clip-path:url(#clip-path);}.cls-3,.cls-4{fill:#3e3f3d;}.cls-4{fill-rule:evenodd;}</style><clipPath id="clip-path" transform="translate(0)"><path class="cls-1" d="M390.14,626.57c149.15,0,270.06-120.91,270.06-270.06S539.29,86.45,390.14,86.45,120.08,207.37,120.08,356.51,241,626.57,390.14,626.57Z"/></clipPath></defs><title>logo</title><g class="cls-2"><path class="cls-3" d="M249,461.55l50.75-8.31a6,6,0,0,1,6.83,4.91l0,.17,33.67,186a5.94,5.94,0,0,1-4.8,6.89L281.7,661a5.94,5.94,0,0,1-6.89-4.8l0-.1h0L244,468.38a6,6,0,0,1,4.91-6.82Zm46.9,4.37-39.12,6.4,28.8,175.87,41.94-7.65L295.86,465.92Z" transform="translate(0)"/><path class="cls-4" d="M282.71,509.9a7.45,7.45,0,1,0-7.45-7.45,7.45,7.45,0,0,0,7.45,7.45Z" transform="translate(0)"/><path class="cls-4" d="M295.09,583.54a7.45,7.45,0,1,0-7.45-7.45,7.45,7.45,0,0,0,7.45,7.45Z" transform="translate(0)"/><path class="cls-3" d="M453.55,422.1a61.53,61.53,0,0,0,29.25-22.89c7.42-11.08,10.17-25.66,9.77-41.25-.49-19.12-5.75-39.66-13-57.37-5.47-13.27-14.87-31.24-27.51-43-8.29-7.73-18-12.73-28.78-11.54-11,1.22-19.88,8-26.82,17.2h0c-10.36,13.67-16.54,32.31-19.64,46.2-4.16,18.68-5.82,39.81-3.05,58.77,2.26,15.44,7.46,29.33,16.66,39a61.6,61.6,0,0,0,32.49,17.54,6,6,0,0,1,5.32,5.93v.16l10.58,208.92c0,.55,2.82,1.08,6.48,1.48a46.77,46.77,0,0,0,8.31.1,52.15,52.15,0,0,0,8.35-1.26c3.76-.91,6.74-.92,6.71-1.2L449.49,428.29a6,6,0,0,1,4.06-6.18v0Zm39.12-16.28c-10,14.91-23.91,22.64-30.94,25.82l18.73,206.13c.62,6.76-6.36,11.55-15.75,13.83a64,64,0,0,1-10.31,1.58,58.48,58.48,0,0,1-10.45-.14c-9.36-1-16.66-4.93-17.05-12.76L416.52,435.49c-7.51-1.95-22.43-7.2-34.76-20.13-11.06-11.6-17.23-27.75-19.82-45.45-3-20.42-1.22-43.08,3.23-63.06,3.38-15.16,10.19-35.58,21.73-50.81h0c8.77-11.57,20.24-20.24,35-21.87s27.55,4.75,38.19,14.67c14.15,13.19,24.46,32.8,30.4,47.22C498.3,315,503.9,337,504.44,357.67c.47,17.88-2.85,34.84-11.77,48.14Z" transform="translate(0)"/><path class="cls-3" d="M422.23,430.62h0a54.38,54.38,0,0,1-8.84-2.27L365.9,574.41l11.32,3.68,45.41-139.67Z" transform="translate(0)"/><path class="cls-3" d="M569.71,277.76l3.14-9.89A33.89,33.89,0,1,0,527.59,248a33.7,33.7,0,0,0,3.67,7.34l-3.31,10.38c-30.58-6.23-47.78-.67-57,5.51,2.14,3.27,4.12,6.61,5.94,9.92,6.21-4.56,19.68-9.57,47.48-4.06l-6.78,21.22a5.94,5.94,0,0,0,11.32,3.59l14.55-45.55a5.94,5.94,0,0,0-1-5.84,22,22,0,1,1,23.81,7.12h0a5.93,5.93,0,0,0-3.85,3.86L547.5,308.48a5.94,5.94,0,1,0,11.32,3.59l7.29-23c38.44,16,41.57,33.06,41.56,38.23a33,33,0,0,1-13.18,6.8c-6.62,1.86-14.5,2.47-23.33,1.93a6,6,0,0,0-6,4.17L523.34,473.47a6,6,0,0,1-5.55,4.47,9.12,9.12,0,0,1-3.29-.41,8.81,8.81,0,0,1-2.88-1.51,6.32,6.32,0,0,1-1.93-7.18l40.39-129.32a6,6,0,0,0-3.91-7.45l-.5-.13a225.12,225.12,0,0,1-24.79-7.83c-8.59-3.24-17.41-7.09-26.36-11.51l-2.63,5.33q1.09,3.76,2,7.58c7.71,3.66,15.33,6.92,22.77,9.72,6.88,2.59,13.62,4.82,20.18,6.66L498.32,465.3c-2.7,8.61.42,15.62,5.85,20a21,21,0,0,0,14.37,4.53A17.52,17.52,0,0,0,534.7,477l40.42-128.87a78.52,78.52,0,0,0,22.58-2.54q2.66-.75,5.13-1.71L512.31,632.71l11.36,3.54,95.4-304.4a5.81,5.81,0,0,0,.15-.61h0C619.26,331.16,625.71,300.85,569.71,277.76Z" transform="translate(0)"/><path class="cls-3" d="M369.91,489.83h0a26.15,26.15,0,0,0-9.71-6.14c5.35-11.89,16.65-37.89,28.31-70-.81-.76-1.62-1.55-2.41-2.38a55.49,55.49,0,0,1-6.41-8.2l-.47,1.32,0,.08.34-1.64a73.9,73.9,0,0,1-8.35-18.58c-4.42,22.77-9.31,43.59-13.61,60.41V171.08q.94.71,1.86,1.51c6.6,5.79,12.16,15.07,16.36,27.87,3.59,11,6.14,24.44,7.45,40.41.8,9.83,1.09,20.07,1,30.55a81.49,81.49,0,0,1,11.74-16.89q-.25-7.42-.83-14.6c-1.38-16.91-4.12-31.3-8-43.15-4.33-13.2-10.13-23.37-17.12-30.54q1.73.38,3.51.94l.09,0,.15,0,.1,0h0l.15,0,.15,0,.56.19.56.2.56.21.56.22.56.23.56.24h0l.55.25.55.26h0l.55.27h0l.55.28.55.29h0l.55.3h0l.54.31.54.32h0l.54.33.53.34.53.35h0l.53.36.53.37h0l.52.38h0l.52.39.52.4.52.41.51.42h0l.51.43.51.44.5.45.5.46h0l.5.47h0l.49.48.49.49h0l.49.5h0l.48.51.48.52h0l.48.53h0l.47.54h0l.47.55.46.57.46.58.46.59.45.6h0l.45.61h0l.44.62h0l.44.63h0l.43.64.43.65h0l.42.66h0l.42.67.42.69h0l.41.69h0l.41.71.4.72.4.73.39.74h0l.39.75.38.76.37.77h0l.37.79.37.79.36.81h0l.35.82h0l.35.83.34.84.33.85h0l.1.3h0l.3.78h0l.29.79h0l.28.8h0l.28.81h0l.27.82h0l.27.83h0l.27.84h0l.26.85h0l.26.86.25.87h0l.25.88h0l.24.88h0l.46,1.8h0l.22.91h0l.22.92h0l.21.93h0l.21.94h0l.2,1h0l.2,1h0l.19,1h0l.18,1h0l.35,2h0l.17,1,.16,1,.16,1h0L411,227h0l.13,1.05h0l.13,1.06h0l.12,1.07h0l.12,1.08.11,1.09h0l.11,1.1.1,1.11h0l.09,1.12h0l.09,1.13.15,2.29.07,1.16h0l.06,1.17.05,1.18h0v.08a37.57,37.57,0,0,1,10.21-2.63c.53-.06,1.05-.1,1.57-.14l0-.74L424,238h0l-.08-1.23-.09-1.22h0l-.1-1.21h0l-.21-2.4h0l-.12-1.18h0l-.12-1.17h0l-.13-1.17h0l-.14-1.15h0l-.3-2.28h0l-.16-1.12h0l-.16-1.12-.17-1.11h0l-.18-1.1h0l-.18-1.09h0l-.19-1.08h0l-.2-1.07h0l-.2-1.06h0l-.21-1h0l-.21-1h0l-.22-1h0l-.23-1h0l-.23-1h0l-.24-1h0l-.25-1h0l-.25-1h0l-.26-1h0l-.53-1.91h0l-.28-.94h0l-.28-.93h0l-.28-.92h0l-.29-.91h0l-.3-.9h0l-.3-.89h0l-.31-.89h0l-.31-.87h0l-.32-.87h0l-.32-.86h0l-.13-.33h0l-.4-1h0l-.41-1h0l-.42-1h0l-.42-1-.44-1h0l-.44-1h0l-.45-.94h0l-.45-.93-.46-.92h0l-.47-.9h0l-.48-.89h0l-.48-.88h0l-.49-.87h0l-.49-.85h0l-.5-.84h0l-.51-.82h0l-.52-.81-.52-.8h0l-.53-.79-.53-.78h0l-.54-.76h0l-.55-.75-.55-.74h0l-.56-.72h0l-.56-.71q-.57-.7-1.15-1.38l-.58-.67-.58-.66-.59-.65-.6-.64-.6-.62-.61-.61-.61-.6-.61-.58-.62-.57-.62-.56-.63-.55-.63-.54-.64-.52h0l-.64-.51-.65-.5h0l-.65-.49-.65-.48-.66-.46h0l-.66-.45-.66-.44-.67-.43-.67-.42-.68-.4-.68-.39h0l-.68-.38-.69-.37-.69-.36-.69-.34-.69-.33-.7-.32-.7-.31h0l-.7-.3h0l-.71-.28h0l-.71-.27-.71-.26-.71-.25h0l-.72-.24-.19-.06-.19-.06h0l-.17-.05a85.46,85.46,0,0,0-51.35,0l-.17.05h0l-.19.06-.19.06-.71.24h0l-.71.25h0l-.7.26h0l-.7.27h0l-.69.28h0l-.69.29h0l-.68.3h0l-.67.31h0l-.66.32,0,0-.66.33,0,0-.65.34,0,0-.65.35-.68.38,0,0-.63.36-.05,0-.62.37-.05,0-.62.38-.67.43-.06,0-.6.4-.06,0-.6.41-.07,0-.59.42-.07.05-.58.43-.07.05-.58.43-.08.06-.57.44-.08.06-.56.45-.64.52-.09.07-.55.47-.09.07-.54.47-.09.08-.53.48-.09.08-.53.49-.1.09-.52.5-.1.09-.51.5-.1.1-.51.51-.1.1-.5.52-.11.11-.49.53c-.38.41-.76.83-1.13,1.26l0,0-.11.13-.47.55-.42.49-.16.19-.11.14-.45.56-.57.71-.12.15-.44.57-.12.16-.43.58-.12.16-.43.58-.12.17-.42.59c-.34.49-.68,1-1,1.49l0,.07-.13.2-.39.61q-.78,1.21-1.53,2.48l-.13.22-.37.63-.13.23-.36.63-.13.24-.35.64-.13.25-.34.64-.14.26-.34.65-.14.27-.33.65-.8,1.65-.11.23-.14.29-.31.67-.14.3-.3.67-.14.31-.29.67-.14.32-.28.68-.14.33-.28.68-.14.34-.27.68-.14.33c-5.59,14.49-8.91,33-8.82,56v1.35h0v1.36h0l0,1.37h0l0,1.38h0l0,1.39h0l0,1.4h0l.06,1.41h0l.07,1.42h0l.07,1.43h0l.08,1.45h0l.09,1.46h0l.1,1.47.11,1.48c6,80.42,51,185.2,63.52,213a26.09,26.09,0,0,0-9.71,6.14l0,0a25.85,25.85,0,0,0-7.61,18.3V641.79a12.69,12.69,0,0,0,3.73,9l0,0a12.69,12.69,0,0,0,9,3.73H364.8a12.76,12.76,0,0,0,12.72-12.72V508.13a25.88,25.88,0,0,0-7.6-18.28Zm-46.59-87.31-.45-1.29-.24-.66-.69-2-.24-.68-.45-1.29-.69-2,0-.06-.66-1.94-.49-1.44-.19-.58-.68-2-.6-1.81-.08-.22-.68-2-.06-.18-.62-1.88-.52-1.59-.15-.48-.67-2.07-.06-.18-.58-1.83,0-.07-.66-2.09-.09-.29-.57-1.8-.54-1.73-.12-.37-.65-2.11-.33-1.08-.32-1-.64-2.12-.12-.41-.51-1.72-.56-1.88-.07-.26-.62-2.14-.35-1.21-.27-.94-.61-2.15-.15-.53-.45-1.62-.56-2,0-.14-.59-2.16-.36-1.34-.22-.82-.58-2.17-.17-.66-.13-.5-.82-3.16v0q-.83-3.25-1.63-6.51l-.19-.78-.08-.34-.77-3.22,0-.1-.76-3.31-.08-.35-.13-.59-.66-2.95-.07-.31-.7-3.24,0-.21-.06-.28-.64-3.08-.06-.28-.09-.47-.43-2.16-.07-.35-.28-1.45-.07-.35-.41-2.15-.06-.33,0-.26-.53-2.92-.08-.43-.06-.35-.47-2.75-.17-1-.49-3v-.08l-.51-3.38,0-.12,0-.23-.41-2.9-.09-.66-.37-2.85-.12-.93-.35-3V280l-.31-3-.07-.72q-.15-1.48-.28-3l0-.53-.25-3.05-.1-1.4-.09-1.38-.08-1.38-.08-1.36h0l-.07-1.35h0l-.06-1.34h0l-.05-1.33h0l0-1.32h0l0-1.31h0l0-1.3h0l0-1.29h0l0-1.28h0v-1.27h0v-1.26h0v-1.24h0V248.7h0l0-1.22h0l0-1.21h0l0-1.2h0l0-1.19h0l0-1.18h0l.05-1.17h0l.06-1.16h0l.07-1.15h0l.07-1.14h0l.08-1.13h0l.09-1.12h0l.09-1.11h0l.1-1.1h0l.11-1.09h0l.11-1.08v0l.12-1.07v0l.13-1.06v0l.13-1v0l.14-1v0l.14-1v0l.15-1v0q.31-2.05.66-4v0l.36-1.95v0l.19-.95v0a107.69,107.69,0,0,1,5-17.39l.08-.23.21-.55,0-.12.11-.27.24-.58.11-.26.24-.58.35-.83.1-.24.25-.57.11-.23.26-.57.11-.23.27-.57.38-.78.1-.21.28-.56.1-.21.28-.55.1-.2.29-.55.1-.19.29-.54.1-.19.3-.54.1-.18.3-.53.1-.17.31-.53.1-.17.32-.52.1-.16.32-.52.43-.67.1-.15.33-.51.1-.15.34-.5.1-.14.34-.5.09-.13.35-.49.09-.13.36-.49.34-.46.11-.15.09-.12.37-.48.09-.11.37-.47.09-.11.38-.46.09-.1.08-.09.39-.46.39-.45.08-.09.39-.45.08-.09.4-.44.08-.09.41-.43.08-.08.41-.43.07-.08.42-.42.07-.07.42-.41.07-.07.49-.47.43-.4.07-.06.44-.39.07-.06.44-.39.06-.05.45-.38.06,0,.45-.37.06,0,.52-.41.46-.36.05,0,1-.73,0,0,.48-.34,0,0,.49-.33,0,0,.49-.32,0,0,.49-.31,0,0,.54-.33.5-.3,0,0,.51-.29,0,0,.51-.28,0,0,.52-.27h0l.52-.26h0l.53-.26h0l.53-.25h0l.54-.24h0l.54-.23h0l.55-.23h0l.55-.22h0l.56-.21h0l.56-.2h0l.57-.19.06,0,.07,0h0l.05,0,.07,0h.06l.07,0h.06l.07,0,.06,0h0l.07,0,.07,0h0c1.16-.36,2.31-.67,3.45-.92-7,7.16-12.79,17.34-17.11,30.54-3.88,11.85-6.62,26.24-8,43.15-4.25,51.9,5.34,114.8,15.93,164.52ZM320,240.88c1.31-16,3.86-29.44,7.45-40.41,4.2-12.8,9.76-22.08,16.36-27.87q.91-.81,1.86-1.52V444.67C332.74,394.29,314.46,308,320,240.88ZM365.6,641.79a.82.82,0,0,1-.8.8H338.37a.84.84,0,0,1-.56-.21l0,0a.83.83,0,0,1-.21-.56V508.13a14,14,0,0,1,23.91-9.92l0,0a14,14,0,0,1,4.1,9.89Z" transform="translate(0)"/><path class="cls-3" d="M253.07,486.7l-43.47,8.59c-9.46-72.24-16.34-141.22-13.1-196.35,3-50.78,14.47-89.47,40.45-107.31l50.66,269.62,11.74-1.92-52.27-278.2h0a5.94,5.94,0,0,0-8.49-4.22c-35.44,17.71-50.47,62.07-54,121.33-3.38,57.51,4,129.45,14,204.47a6,6,0,0,0,7.09,5.5L255,498.46Z" transform="translate(0)"/></g><path class="cls-3" d="M390.14,620.61a264.09,264.09,0,1,0-186.75-77.35,263.27,263.27,0,0,0,186.75,77.35Zm195.17-68.92a276,276,0,1,1,80.85-195.17,275.16,275.16,0,0,1-80.85,195.17Z" transform="translate(0)"/><path class="cls-3" d="M55.17,478.76a5.94,5.94,0,1,1,11.18-4.05,344.09,344.09,0,0,0,55.56,98.14,5.94,5.94,0,1,1-9.27,7.45A356.07,356.07,0,0,1,55.17,478.76Z" transform="translate(0)"/><path class="cls-3" d="M745.59,329a6,6,0,0,1-11.88.88,344.61,344.61,0,0,0-687.16,0A6,6,0,0,1,34.68,329a356.52,356.52,0,0,1,710.91,0Z" transform="translate(0)"/><path class="cls-3" d="M667.5,580.45a5.95,5.95,0,1,1-9.27-7.45,344.21,344.21,0,0,0,55.69-98.3,5.94,5.94,0,1,1,11.18,4.05,356.18,356.18,0,0,1-57.6,101.7Z" transform="translate(0)"/><path class="cls-3" d="M80,444.19a5.16,5.16,0,1,1-10-2.5s1-4-2.45-10c-2.25-3.88-9.81-10.93-16.17-16.48.84,11,1.33,26.34-1.42,34.57A38.42,38.42,0,0,1,48,454.4c-2.6,5.32-6.06,8.87-9.74,10.87a15.39,15.39,0,0,1-12.38,1.27,15.2,15.2,0,0,1-1.76-.71l-.13-.06c-4.39-2.18-7.71-6.5-8.56-12.81-.71-5.3.39-12.13,4.35-20.33l.13-.3.06-.12.13-.28c5.23-10.51,13-21.63,17.39-27.59-6.15-4.16-17.19-12-25.62-20.15l-.32-.31-.12-.12c-6.55-6.43-9.92-12.55-11-17.83C-.86,359.7.82,354.53,4.22,351l.07-.07,0,0a14.48,14.48,0,0,1,1.42-1.28l.37-.27a15.4,15.4,0,0,1,11.7-2.69c4.15.65,8.61,2.84,12.83,7l0,0A38.06,38.06,0,0,1,34,357.38h0c5.34,6.8,10,21.42,12.93,32.08,4.15-7.41,8.93-16.61,9.72-20.92,1.26-6.88-1.23-10.55-1.24-10.56a5.16,5.16,0,1,1,9-5.13s4.42,6.62,2.41,17.55C65.36,378,56,394.47,51.65,401.9c6.69,5.62,21,18.05,24.81,24.61C82,436.17,80,444.17,80,444.19ZM41.16,417a169.82,169.82,0,0,0-11.76,19.49l-.14.26-.05.1-.11.21c-3,6.18-3.87,11-3.4,14.47.34,2.57,1.48,4.22,2.95,4.94h0a4.73,4.73,0,0,0,.54.23,5.25,5.25,0,0,0,4.18-.54c1.92-1,3.83-3.11,5.42-6.35a27.36,27.36,0,0,0,1.36-3.39c2.16-6.46,1.75-19.46,1-29.45Zm-22.1-40.29A170.05,170.05,0,0,0,36.7,391.18c-2.63-9.65-6.61-22-10.84-27.43h0A28.06,28.06,0,0,0,23.45,361c-2.59-2.54-5.08-3.84-7.22-4.18a5.38,5.38,0,0,0-3.94.74l-.19.15a4.77,4.77,0,0,0-.43.38l0,0c-1.13,1.17-1.65,3.12-1.11,5.67.73,3.45,3.21,7.73,8.2,12.61h0l.32.31Zm-7.5,7.08-.08-.08.08.08Z" transform="translate(0)"/><path class="cls-3" d="M710.29,441.69a5.16,5.16,0,1,1-10,2.5s-2-8,3.54-17.69c3.79-6.55,18.11-19,24.81-24.61-4.38-7.44-13.71-23.92-15.11-31.52-2-10.93,2.4-17.53,2.41-17.55a5.16,5.16,0,1,1,9,5.13s-2.5,3.68-1.24,10.56c.79,4.31,5.57,13.51,9.72,20.92,2.91-10.65,7.59-25.27,12.93-32.08h0a38.06,38.06,0,0,1,3.32-3.72l0,0c4.22-4.12,8.68-6.31,12.83-7a15.4,15.4,0,0,1,11.7,2.69l.37.27a14.51,14.51,0,0,1,1.42,1.28l0,0,.07.07c3.4,3.53,5.08,8.7,3.78,14.91-1.11,5.28-4.48,11.4-11,17.83l-.12.12-.32.31c-8.44,8.13-19.48,16-25.62,20.15,4.38,6,12.16,17.08,17.39,27.59l.13.28.06.12.13.3c4,8.19,5.06,15,4.35,20.33-.85,6.31-4.17,10.63-8.56,12.81l-.13.06a15.19,15.19,0,0,1-1.76.71A15.39,15.39,0,0,1,742,465.27c-3.68-2-7.14-5.55-9.74-10.87a38.4,38.4,0,0,1-1.89-4.64c-2.76-8.23-2.26-23.58-1.42-34.57-6.36,5.55-13.93,12.6-16.17,16.48-3.47,6-2.46,10-2.45,10Zm40.59-5.17A169.81,169.81,0,0,0,739.12,417c-.75,10-1.17,23,1,29.45a27.29,27.29,0,0,0,1.36,3.39c1.58,3.24,3.5,5.3,5.42,6.35a5.25,5.25,0,0,0,4.18.54,4.72,4.72,0,0,0,.54-.23h0c1.46-.73,2.6-2.38,2.95-4.94.47-3.48-.42-8.29-3.4-14.47l-.11-.21-.05-.1-.14-.26Zm-7.31-45.34a170.08,170.08,0,0,0,17.65-14.44l.32-.31h0c5-4.89,7.47-9.16,8.2-12.61.53-2.55,0-4.49-1.11-5.67l0,0a4.83,4.83,0,0,0-.43-.38l-.19-.15a5.38,5.38,0,0,0-3.94-.74c-2.14.34-4.62,1.64-7.22,4.18a28,28,0,0,0-2.41,2.71h0c-4.23,5.38-8.21,17.78-10.84,27.43Zm25.23-7.43-.08.08.08-.08Z" transform="translate(0)"/><path class="cls-3" d="M503.94,668.56a4,4,0,0,1-3.11-7.3l11.77-5h0l.1,0,.09,0,11.79-5.06a4,4,0,1,1,3.1,7.3l-8.23,3.53,17,39.69a4,4,0,1,1-7.3,3.11l-17-39.67-8.24,3.53Z" transform="translate(0)"/><path class="cls-4" d="M584.59,676.92a5.37,5.37,0,1,0-5.37-5.37,5.37,5.37,0,0,0,5.37,5.37Z" transform="translate(0)"/><path class="cls-3" d="M174.76,603.66a4,4,0,1,1,6.24,4.91L172.76,619h.08l21.08-3.52a4,4,0,0,1,1.3,7.83l-18.39,3.07-4.12,33a4,4,0,0,1-7.89-1l3.83-30.7-3.18.53-13.63,17.32a4,4,0,1,1-6.24-4.91l29.16-37Z" transform="translate(0)"/><path class="cls-3" d="M202.69,624.89a4,4,0,0,1,6.55,4.47L189.09,659c-2,2.95-1.78,5.83-.4,7.93h0a8,8,0,0,0,2.19,2.19h0a8,8,0,0,0,2.85,1.21c2.47.51,5.26-.34,7.3-3.34l20.11-29.53a4,4,0,1,1,6.55,4.47l-20.11,29.53c-4.14,6.07-10.08,7.75-15.46,6.63a16,16,0,0,1-5.69-2.43h0a16,16,0,0,1-4.34-4.4h0c-3-4.58-3.62-10.7.5-16.75l20.15-29.59Z" transform="translate(0)"/><path class="cls-3" d="M264.47,659.58A4,4,0,0,1,272,662l-5.65,17.29,14.77,4.83,5.65-17.27a4,4,0,1,1,7.54,2.45l-6.88,21,0,.1-7.74,23.67a4,4,0,1,1-7.54-2.45l6.54-20-14.77-4.83-6.53,20a4,4,0,0,1-7.55-2.45l14.65-44.81Z" transform="translate(0)"/><path class="cls-3" d="M237.19,686.54a4,4,0,0,1,7,3.73c-3.45,6.48-9.18,8.8-14.66,8.27a15.91,15.91,0,0,1-10.76-5.72c-3.48-4.23-4.75-10.24-1.31-16.67l10.64-19.94c3.81-7.14,9.7-10,15.18-9.76a14.48,14.48,0,0,1,11.09,5.92h0c3.25,4.45,4.19,10.95.38,18.11a4,4,0,1,1-7-3.73c2.17-4.08,1.84-7.52.25-9.7h0a6.55,6.55,0,0,0-5-2.67c-2.7-.11-5.72,1.52-7.88,5.57l-10.64,19.94c-1.68,3.15-1.15,6,.44,7.91a8.32,8.32,0,0,0,5.38,2.86c2.51.24,5.2-.91,6.9-4.11Z" transform="translate(0)"/><path class="cls-3" d="M301.09,671.9l0-.07v0l0-.06v0l0-.06v0l0-.05,0,0,0,0,0,0,0,0,0,0,0,0,0,0,0,0,0-.05,0,0,0-.05,0,0,0-.05,0,0,0-.05,0,0,0-.06,0,0,0-.05,0,0,0-.05,0,0,0-.05,0,0,0-.05,0,0,0-.05,0,0,0-.05,0,0,0-.05,0,0,0,0,0,0,.05-.05,0,0,.05,0,0,0,.05,0,0,0,.05,0,0,0,.05,0,0,0,.05,0,0,0,.05,0,.16-.11,0,0,0,0,0,0,0,0,0,0,0,0,0,0,0,0,0,0,0,0,0,0,0,0,.09,0,.05,0h0l.06,0h0l.06,0h0l.07,0h0l.07,0h0l.08,0h0l.09,0h0l.09,0h0l.1,0h0l.09,0h1.38l.1,0h0l.09,0h0l.08,0h0l.08,0h0a4.06,4.06,0,0,1,.52.19l0,0,0,0,0,0,.13.06,0,0,.2.12.05,0,0,0,0,0,0,0,0,0,0,0,.05,0,0,0,.07.06,0,0,0,0,0,0,0,0,0,0,0,0,0,0,0,0,0,0,0,0,0,0,0,0,0,0,.06.07,0,0,0,0a3.66,3.66,0,0,1,.25.34l0,0a4.08,4.08,0,0,1,.48,1.14l8.7,34.32,6.2-29.39a4,4,0,1,1,7.77,1.61l-9.7,46,0,.1h0l-.07.27v0l0,.07v0l0,.06v0l0,.06v0l0,.06v0l0,.05,0,0,0,0,0,0,0,0,0,0,0,0,0,0,0,0,0,0,0,0,0,0,0,0,0,0,0,0,0,.05,0,0,0,.05,0,0,0,0,0,0,0,.05,0,0,0,0,0,0,0,0,0,0,0,0,0,0,0,0,0,0,0,0,0,0,0,0a4,4,0,0,1-1.81,1l-.1,0h0a4,4,0,0,1-2-.08h0l-.07,0h0l-.06,0h0l-.09,0-.05,0,0,0a4,4,0,0,1-.44-.22l0,0,0,0a3.94,3.94,0,0,1-1.76-2.41l-8.7-34.32-6.2,29.39a4,4,0,0,1-7.76-1.61l9.7-46a3.9,3.9,0,0,1,.1-.42Z" transform="translate(0)"/><path class="cls-3" d="M377.69,682.13l0,0,0,0,0,0,0-.05,0,0,0-.06v0l0-.06v0l0-.07v0l0-.07h0l.09-.16h0l0-.08h0l0-.08h0l.05-.08h0l.05-.08h0l.1-.14v0h0v0l.11-.13h0l.06-.06h0l.06-.06h0l.06-.06h0l.06-.06h0l.06-.06h0l.06-.06h0l.13-.11h0l.14-.1h0l.08-.05h0l.08-.05h0l.08,0h0l.08,0h0l.16-.09h0l.07,0h0l.07,0h0l.06,0h0l.06,0,0,0,.05,0,0,0,0,0,0,0h0l.05,0h0l.06,0h0l.07,0h0l.07,0h0l.08,0h1.47l.08,0h0l.07,0h0l.07,0h0l.06,0h0l.05,0h0l.05,0,0,0,0,0,.05,0,0,0,.06,0h0l.06,0h0l.07,0h0l.07,0h0l.16.09h0l.08,0h0l.08,0h0l.08.05h0l.08.05h0l.13.1h0l.13.11h0l.07.06h0l.06.06h0l.06.06h0l.06.06h0l.06.06h0l.06.06h0l.11.13v0h0v0l.1.14h0l.05.08h0l0,.08h0l0,.08h0l0,.08h0l.09.16h0l0,.07v0l0,.07v0l0,.06v0l0,.06,0,0,0,.05,0,0,0,0,0,0v0l15.47,47.1a4,4,0,1,1-7.54,2.45l-3.31-10.07h-16.8l-3.31,10.08a4,4,0,0,1-7.55-2.45l15.47-47.1v0Zm3.77,13.94-5.8,17.66h11.6l-5.8-17.66Z" transform="translate(0)"/><path class="cls-3" d="M334.28,731.11a4,4,0,0,1,1.09-7.86l4.56.64,5.45-38.82-4.54-.64a4,4,0,0,1,1.09-7.86l8.38,1.17h.1l.1,0,8.38,1.17a4,4,0,1,1-1.09,7.86l-4.56-.64L347.78,725l4.55.64a4,4,0,1,1-1.09,7.86l-8.38-1.18h-.1l-8.48-1.19Z" transform="translate(0)"/><path class="cls-3" d="M551,661.34l.72-21.45a4,4,0,0,1,7.92.25l-.93,27.77L568,686.55a4,4,0,1,1-7.11,3.54l-9.28-18.63-22.73-16a4,4,0,0,1,4.57-6.49L551,661.34Z" transform="translate(0)"/><path class="cls-3" d="M468.95,685.49a4,4,0,1,1-7.54,2.45c-1.1-3.37-3.27-5.23-5.56-5.76a6.58,6.58,0,0,0-3.09,0,6.49,6.49,0,0,0-2.74,1.45c-1.87,1.67-3,4.64-2.25,8.79l3.82,22.28c.6,3.51,2.75,5.42,5.18,6a8.2,8.2,0,0,0,6-1c2.14-1.34,3.55-3.91,2.94-7.49l-1-5.65-6.41,1.1a4,4,0,0,1-1.34-7.82L467.32,698a4,4,0,0,1,4.58,3.24l1.64,9.57c1.24,7.24-1.89,12.59-6.54,15.53a16,16,0,0,1-12,2.06c-5.34-1.2-10-5.18-11.27-12.37l-3.82-22.28c-1.24-7.21,1-12.7,4.8-16.05a14.48,14.48,0,0,1,12.91-3.28c4.8,1.12,9.22,4.7,11.3,11Z" transform="translate(0)"/><path class="cls-3" d="M570.83,630.14a4,4,0,0,1,.79-5.54L580,618.3a4.37,4.37,0,0,1,.38-.3,15.26,15.26,0,0,1,21,2.86,4.08,4.08,0,0,1,.32.4l.07.1a15.26,15.26,0,0,1-3.08,21.31l-5.5,4.12,12.23,16.34a4,4,0,0,1-6.34,4.75l-14.54-19.43h0l-.06-.08-13.64-18.24Zm8.71-1.58,8.9,11.89h0l5.5-4.11a7.34,7.34,0,0,0,1.46-10.22l-.15-.2h0A7.33,7.33,0,0,0,585,624.45h0l-5.5,4.11Z" transform="translate(0)"/><path class="cls-3" d="M635.77,644.24h0l-.08.07h0l-.08.06h0l-.08.06h0l-.08.06h0l-.08.05h0l-.08.05h0l-.08.05h0l-.08,0h0l-.09,0h0l-.09,0h0l-.09,0h0l-.09,0h0l-.09,0h0l-.09,0h0l-.09,0h0l-.09,0h0l-.09,0h0l-.09,0h0l-.09,0h0l-.09,0h0l-.09,0h0l-.09,0h0l-.09,0h-1.42l-.09,0h0l-.09,0h0l-.09,0h0l-.09,0h0l-.09,0h0l-.09,0h0l-.09,0h0l-.09,0h0l-.09,0h0l-.09,0h0l-.09,0h0l-.09,0h0l-.09,0h0l-.08,0h0l-.08,0h0l-.08-.05h0l-.08-.05h0l-.08-.06h0l-.08-.06h0l-.08-.06h0l-.08-.06h0l-.07-.06h0l-.07-.06h0l-.07-.07h0l-.07-.07h0l-.07-.07h0l-31.6-35a4,4,0,1,1,5.87-5.31l29,32.05,12.35-11.16a4,4,0,1,1,5.31,5.87l-15.21,13.74-.08.07Z" transform="translate(0)"/><path class="cls-3" d="M405.67,717.19a3.75,3.75,0,0,1,.14-.6l8.31-34.79v-.09l0-.07v0l0-.07v0l0-.07v0l0-.08h0l0-.08h0l0-.09h0l0-.09h0l0-.08h0l0-.08h0l0-.08h0l0-.07h0l0-.07v0l0-.06v0l0-.06v0l0-.06v0l0-.06,0,0,0-.06v0l0-.06,0,0,0-.06,0,0,0-.05,0,0,.07-.07,0-.05,0,0,.05-.05h0l.07-.06.06-.05h0l.13-.11h0l.06-.05h0l.07-.05h0l.07-.05h0l.16-.1h0l.16-.09h0l.07,0h0l.07,0h0l.06,0,.09,0,0,0,.06,0,0,0,.05,0,0,0,0,0,.05,0h0l.06,0h0l.06,0h0l.07,0h0l.07,0h0l.07,0h1.72l.06,0h0l.07,0h0l.07,0h0l.08,0h0l.08,0h0l.09,0h0l.09,0h0l.08,0h0l.08,0h0l.08,0h0l.07,0h0l.07,0h0l.07,0h0l.06,0h0l.06,0h0l.06,0,0,0,.06,0h0l.06,0,0,0,.06,0,0,0,.05,0,0,0,.07.07.05,0,0,0,.05.05v0l.07.07.05.06v0l.11.13h0l.05.06h0l.05.07h0l.05.07h0l.1.16h0l.09.16h0l0,.07h0l0,.07v0l0,.07,0,.09,0,0,0,.06,13.93,32.93a3.79,3.79,0,0,1,.25.6L441,726.82a4,4,0,0,1-7.3,3.07l-4.13-9.76-16.77,1.39-2.46,10.31a4,4,0,1,1-7.7-1.83l3.06-12.81Zm9-3.79,11.57-1L419,695.3l-4.32,18.09Z" transform="translate(0)"/><path class="cls-3" d="M482.5,669.47a4,4,0,0,1,.05-.75h0l0-.19h0l0-.19h0l0-.1,0-.08h0l.09-.26h0a3.89,3.89,0,0,1,1.37-1.73,4,4,0,0,1,2.95-.68h0l.19,0h0l.19,0h0l.1,0,.08,0h0l.26.09h0a3.92,3.92,0,0,1,1.73,1.37l20.89,29.27.2.28,7.74,10.83a4,4,0,1,1-6.46,4.6l-6.16-8.63-16.06,5L489.69,719a4,4,0,0,1-7.92-.09l.2-13.24a4.16,4.16,0,0,1,0-.47l.53-35.74ZM501,696.62l-10.81-15.14L490,700.07,501,696.62Z" transform="translate(0)"/></svg>